<?xml version="1.0" encoding="UTF-8" standalone="no"?>
<!-- Created with Inkscape (http://www.inkscape.org/) -->

<svg
   xmlns:dc="http://purl.org/dc/elements/1.1/"
   xmlns:cc="http://creativecommons.org/ns#"
   xmlns:rdf="http://www.w3.org/1999/02/22-rdf-syntax-ns#"
   xmlns:svg="http://www.w3.org/2000/svg"
   xmlns="http://www.w3.org/2000/svg"
   xmlns:sodipodi="http://sodipodi.sourceforge.net/DTD/sodipodi-0.dtd"
   xmlns:inkscape="http://www.inkscape.org/namespaces/inkscape"
   width="24"
   height="24"
   viewBox="0 0 24 24.000001"
   id="svg2"
   version="1.1"
   inkscape:version="0.91 r13725"
   sodipodi:docname="icon.svg">
  <defs
     id="defs4" />
  <sodipodi:namedview
     id="base"
     pagecolor="#ffffff"
     bordercolor="#666666"
     borderopacity="1.0"
     inkscape:pageopacity="0.0"
     inkscape:pageshadow="2"
     inkscape:zoom="5.6568543"
     inkscape:cx="22.796429"
     inkscape:cy="14.571067"
     inkscape:document-units="px"
     inkscape:current-layer="layer1"
     showgrid="false"
     units="px"
     inkscape:window-width="511"
     inkscape:window-height="386"
     inkscape:window-x="476"
     inkscape:window-y="375"
     inkscape:window-maximized="0" />
  <metadata
     id="metadata7">
    <rdf:RDF>
      <cc:Work
         rdf:about="">
        <dc:format>image/svg+xml</dc:format>
        <dc:type
           rdf:resource="http://purl.org/dc/dcmitype/StillImage" />
        <dc:title></dc:title>
      </cc:Work>
    </rdf:RDF>
  </metadata>
  <g
     inkscape:label="Calque 1"
     inkscape:groupmode="layer"
     id="layer1"
     transform="translate(0,-1028.3622)">
    <rect
       style="color:#000000;clip-rule:nonzero;display:inline;overflow:visible;visibility:visible;opacity:1;isolation:auto;mix-blend-mode:normal;color-interpolation:sRGB;color-interpolation-filters:linearRGB;solid-color:#000000;solid-opacity:1;fill:#b3d107;fill-opacity:1;fill-rule:nonzero;stroke:none;stroke-width:30;stroke-linecap:butt;stroke-linejoin:miter;stroke-miterlimit:4;stroke-dasharray:none;stroke-dashoffset:0;stroke-opacity:1;marker:none;color-rendering:auto;image-rendering:auto;shape-rendering:auto;text-rendering:auto;enable-background:accumulate"
       id="rect4136"
       width="20"
       height="20"
       x="1.9999998"
       y="1030.3622"
       rx="2" />
    <g
       style="color:#000000;font-style:italic;font-variant:normal;font-weight:normal;font-stretch:normal;font-size:15.00000095px;line-height:125%;font-family:'Times New Roman';-inkscape-font-specification:'Times New Roman,  Italic';text-indent:0;text-align:center;text-decoration:none;text-decoration-line:none;text-decoration-style:solid;text-decoration-color:#000000;letter-spacing:0px;word-spacing:0px;text-transform:none;direction:ltr;block-progression:tb;writing-mode:lr-tb;baseline-shift:baseline;text-anchor:middle;white-space:normal;clip-rule:nonzero;display:inline;overflow:visible;visibility:visible;opacity:1;isolation:auto;mix-blend-mode:normal;color-interpolation:sRGB;color-interpolation-filters:linearRGB;solid-color:#000000;solid-opacity:1;fill:#606060;fill-opacity:1;fill-rule:nonzero;stroke:none;stroke-width:0.99999988px;stroke-linecap:butt;stroke-linejoin:miter;stroke-miterlimit:4;stroke-dasharray:none;stroke-dashoffset:0;stroke-opacity:1;color-rendering:auto;image-rendering:auto;shape-rendering:auto;text-rendering:auto;enable-background:accumulate"
       id="text4138">
      <path
         d="m 7.8940027,1045.9213 0.8203125,-3.6841 0.2490235,0 q -0.05127,0.5347 -0.05127,0.8862 0,1.0034 0.637207,1.6333 0.6445318,0.6299 1.6772458,0.6299 0.959473,0 1.45752,-0.5859 0.498047,-0.5933 0.498047,-1.3623 0,-0.4981 -0.227051,-0.9082 -0.344238,-0.608 -1.838379,-2.1387 -0.725098,-0.7324 -0.930176,-1.0913 -0.3369138,-0.5933 -0.3369138,-1.2451 0,-1.0401 0.7763668,-1.7798 0.776368,-0.7398 1.992188,-0.7398 0.410156,0 0.776367,0.081 0.227051,0.044 0.827637,0.293 0.424805,0.1684 0.46875,0.1831 0.102539,0.022 0.227051,0.022 0.212402,0 0.366211,-0.1098 0.153808,-0.1099 0.358887,-0.4688 l 0.27832,0 -0.761719,3.2959 -0.249023,0 q 0.0293,-0.4394 0.0293,-0.7104 0,-0.8863 -0.585938,-1.4502 -0.585938,-0.564 -1.54541,-0.564 -0.761719,0 -1.237793,0.4468 -0.476075,0.4468 -0.476075,1.0327 0,0.5127 0.300293,0.9814 0.307618,0.4615 1.398926,1.5162 1.098633,1.0473 1.420899,1.6406 0.322266,0.5859 0.322266,1.2524 0,0.7544 -0.402833,1.4649 -0.395507,0.7031 -1.142578,1.0913 -0.74707,0.3882 -1.633301,0.3882 -0.439453,0 -0.820312,-0.081 -0.38086,-0.081 -1.2158206,-0.3955 -0.2856445,-0.1099 -0.4760742,-0.1099 -0.432129,0 -0.6738282,0.586 l -0.2783203,0 z"
         style="font-style:italic;font-variant:normal;font-weight:normal;font-stretch:normal;font-family:'Times New Roman';-inkscape-font-specification:'Times New Roman,  Italic';fill:#606060;fill-opacity:1"
         id="path4140" />
    </g>
  </g>
</svg>
