<?xml version="1.0" encoding="UTF-8" standalone="no"?>
<svg
   xmlns:dc="http://purl.org/dc/elements/1.1/"
   xmlns:cc="http://creativecommons.org/ns#"
   xmlns:rdf="http://www.w3.org/1999/02/22-rdf-syntax-ns#"
   xmlns:svg="http://www.w3.org/2000/svg"
   xmlns="http://www.w3.org/2000/svg"
   xmlns:sodipodi="http://sodipodi.sourceforge.net/DTD/sodipodi-0.dtd"
   xmlns:inkscape="http://www.inkscape.org/namespaces/inkscape"
   viewBox="0 0 24 24"
   enable-background="new 0 0 800 600"
   id="svg2"
   version="1.1"
   inkscape:version="0.91 r13725"
   sodipodi:docname="icon.svg"
   width="24"
   height="24">
  <metadata
     id="metadata12">
    <rdf:RDF>
      <cc:Work
         rdf:about="">
        <dc:format>image/svg+xml</dc:format>
        <dc:type
           rdf:resource="http://purl.org/dc/dcmitype/StillImage" />
        <dc:title></dc:title>
      </cc:Work>
    </rdf:RDF>
  </metadata>
  <defs
     id="defs10" />
  <sodipodi:namedview
     pagecolor="#ffffff"
     bordercolor="#666666"
     borderopacity="1"
     objecttolerance="10"
     gridtolerance="10"
     guidetolerance="10"
     inkscape:pageopacity="0"
     inkscape:pageshadow="2"
     inkscape:window-width="1680"
     inkscape:window-height="1028"
     id="namedview8"
     showgrid="false"
     inkscape:zoom="32"
     inkscape:cx="13.193979"
     inkscape:cy="12.326976"
     inkscape:window-x="-8"
     inkscape:window-y="-8"
     inkscape:window-maximized="1"
     inkscape:current-layer="svg2" />
  <rect
     style="color:#000000;clip-rule:nonzero;display:inline;overflow:visible;visibility:visible;opacity:1;isolation:auto;mix-blend-mode:normal;color-interpolation:sRGB;color-interpolation-filters:linearRGB;solid-color:#000000;solid-opacity:1;fill:#ffffff;fill-opacity:1;fill-rule:nonzero;stroke:none;stroke-width:30;stroke-linecap:butt;stroke-linejoin:miter;stroke-miterlimit:4;stroke-dasharray:none;stroke-dashoffset:0;stroke-opacity:1;marker:none;color-rendering:auto;image-rendering:auto;shape-rendering:auto;text-rendering:auto;enable-background:accumulate"
     id="rect4140"
     width="18.848814"
     height="19.047689"
     x="2.4306796"
     y="2.4774373" />
  <path
     d="m 17.178109,12.938411 c 0.0914,0.0914 0.10156,0.243745 -0.01016,0.324993 -0.274214,0.18281 -0.619521,0.152342 -0.944516,0.121873 -0.548428,-0.06094 -1.18826,-0.08125 -1.472631,-0.599208 -0.01016,0 -0.01016,-0.01016 -0.02031,-0.02031 -0.355463,-0.192965 0.243746,-0.335151 0.4164,-0.355463 0.38593,-0.05078 0.792173,0.05078 1.167948,0.132029 0.324995,0.08125 0.629676,0.162497 0.863267,0.396088 z m 4.976477,8.12486 c -0.253903,0.182809 -0.142186,0.487491 -0.324995,0.700768 -0.18281,0.203123 -0.609364,0.203123 -0.842954,0.203123 -0.974983,0.01016 -1.929655,-0.07109 -2.894481,0.01016 -0.243747,0.02031 -0.46718,0.05078 -0.70077,0.111717 -0.07109,0.02031 -0.182809,0.06094 -0.253902,0.02031 -0.192966,-0.101561 -0.375775,-0.426556 -0.629677,-0.324995 -0.213277,0.0914 -0.375775,0.396088 -0.629676,0.213278 -0.467179,-0.345306 -0.863267,-0.03047 -1.350758,0.06094 -0.507804,0.101562 -0.995296,-0.182809 -1.492943,-0.04062 -0.375775,0.111717 -0.731238,0.223434 -1.117169,0.09141 -0.385931,-0.132029 -0.487492,-0.436711 -0.152341,-0.710926 0.528116,-0.43671 1.178105,-0.497647 1.83825,-0.446867 0.995296,0.08125 1.980434,0.01016 2.97573,-0.04062 0.03047,0 0.05078,0.02031 0.05078,0.04062 0.426554,0.172653 0.700768,-0.172653 0.944514,-0.467179 0.03047,-0.04062 0.0914,-0.02031 0.111717,0.01016 0.355463,0.528116 0.792174,-0.07109 1.239042,-0.02031 0.121872,0.01016 0.233589,0.04062 0.304682,0.152341 0.03047,0.05078 0.04062,0.111717 0.04062,0.172654 0.02031,0.274214 0.365619,0.213277 0.355463,-0.06094 0,-0.04062 0.05078,-0.08125 0.09141,-0.07109 0.355463,0.142186 0.812486,0.335151 1.107012,-0.04062 0.243746,-0.314838 0.28437,-0.761705 0.304683,-1.147637 0.05078,-1.025763 -0.02031,-2.081995 -0.0914,-3.107758 -0.06094,-0.995296 -0.172653,-2.010903 -0.05078,-3.006199 0.121872,-0.98514 0.111716,-1.949966 0.0914,-2.945262 -0.01016,-0.5179591 -0.03047,-1.0359201 0,-1.5538791 0.02031,-0.477336 0.101561,-0.9851397 0.05078,-1.4624752 -0.05078,-0.4265552 -0.304683,-0.7921739 -0.355463,-1.2085731 -0.05078,-0.3859308 0,-0.7820178 0.0914,-1.1577925 0.05078,-0.2335898 0.172653,-0.5078038 0.162497,-0.7515496 -0.01016,-0.2031215 -0.02031,-0.4163991 -0.01016,-0.6195206 0,-0.1015607 -0.02031,-0.264058 0.06094,-0.3453066 0.121873,-0.142185 0.18281,-0.3554626 -0.10156,-0.3859308 -0.670301,-0.08125 -1.360915,-0.5078046 -2.000748,-0.091406 0.01016,0.142185 0.02031,0.3046822 -0.02031,0.4468673 l 0.0914,0.1218729 c 0.162498,0.071093 0.324995,0.091405 0.497648,0.1015608 0.203122,0 0.426555,-0.050781 0.629676,-0.030468 0.172654,0.020312 0.314839,0.1726532 0.253902,0.3656186 -0.04062,0.1421851 -0.172653,0.264058 -0.243746,0.3859309 -0.132028,0.2132775 -0.111716,0.5179598 -0.111716,0.7617057 -0.01016,0.6195205 0,1.2390411 0.02031,1.8484057 0.02031,0.5078038 0.07109,1.0257636 0.101561,1.5437234 0.01016,0.010156 0.04062,0.020312 0.04062,0.040624 0.02031,0.5788961 0.213277,1.1476361 0.223433,1.7265332 0.01016,0.01016 -0.15234,0.710925 -0.15234,0.710925 -0.01016,0.751549 -0.07109,2.132775 -0.07109,2.132775 -0.01016,1.279666 -0.23359,2.53902 -0.01016,3.808529 0.09141,0.507803 -0.10156,1.005451 -0.121873,1.513255 -0.02031,0.558584 0.05078,1.117168 -0.03047,1.675752 0.01016,0.03047 0,0.07109 -0.04062,0.08125 -1.167949,0.223434 -2.346054,0.264058 -3.534315,0.192965 -0.294526,-0.02031 -0.649989,-0.04062 -0.934359,0.07109 -0.111716,0.05078 -0.264058,0.121873 -0.396086,0.111717 -0.172654,-0.02031 -0.253903,-0.152341 -0.4164,-0.18281 -0.203121,-0.04062 -0.396087,-0.08125 -0.599208,-0.10156 -0.528116,-0.07109 -1.025763,-0.101561 -1.523412,0.111716 -0.274214,0.121874 -0.558584,0.07109 -0.832798,-0.04062 -0.324994,-0.132029 -0.56874,-0.294525 -0.924203,-0.121872 -0.142185,0.07109 -0.274214,0.142184 -0.436711,0.182809 -0.132029,0.03047 -0.253902,0 -0.375775,-0.05078 -0.2742139,-0.10156 -0.4874918,-0.132028 -0.771862,-0.08125 0.030468,0.04062 0.010156,0.121873 -0.050781,0.121873 -1.7265328,-0.0914 -3.4632217,0.111717 -5.1897545,0.132029 -0.081249,0.02031 -0.1421851,0.111716 -0.1929654,0.111716 l -0.050781,0 c -0.040624,0 -0.05078,-0.142184 -0.040624,-0.172653 C 3.5283423,20.108599 3.5892788,19.265645 3.5994349,19.0219 3.6705269,17.417239 3.4674058,15.802424 3.4166255,14.197763 c -0.020312,-0.802329 -0.020312,-1.604659 0.1117168,-2.396834 0.1523412,-0.893734 0.1523412,-1.757 0.1320289,-2.6507351 -0.040624,-1.7773133 0.1320291,-3.5444704 0.081249,-5.3217836 0,-0.030468 0.030468,-0.040624 0.050781,-0.030468 l 0.020312,-0.010156 c 0.4773356,-0.040624 0.9952954,-0.1726533 1.4624749,-0.040624 0.010156,0 0.020312,0.010156 0.020312,0.020312 l 0.071093,0.010156 0.528116,0 c 0.020312,0 0.040624,0.010156 0.040624,0.020312 0.9343589,0.010156 1.8687179,-0.071093 2.8030768,-0.1117168 0.3249944,-0.010156 0.6601449,0 0.9851397,-0.1015608 0.1624971,-0.050781 0.3554628,-0.132029 0.5281158,-0.121873 0.426556,0.030468 0.863266,0.1624973 1.279666,0.253902 0.294527,0.060937 0.497648,-0.4468674 0.761706,-0.2742141 0.396087,0.2539019 0.863266,0.1624972 1.32029,0.1726533 0.243746,0.010156 0.477335,-0.040624 0.721081,-0.040624 0.132029,0 0.243746,0.030468 0.365619,0.060937 0.121873,-0.020312 0.223433,-0.010156 0.355463,0.040624 0.72108,0.020312 1.452318,-0.081249 2.173399,-0.071093 0.436712,0.010156 0.914047,0.040624 1.330447,-0.1218728 0.111717,-0.040625 0.172653,-0.1015608 0.203121,-0.1726534 -0.02031,-0.030468 -0.03047,-0.071093 -0.05078,-0.1117168 -0.03047,-0.060936 -0.07109,-0.1320289 -0.111718,-0.1828092 -0.46718,-0.1523412 -1.005452,-0.1117169 -1.492943,-0.132029 -0.670301,-0.030468 -1.330446,0.060936 -2.000747,0.1117168 -0.61952,0.05078 -1.269509,0.091405 -1.88903,0.040624 -0.365618,-0.030468 -1.056232,-0.1929654 -1.37107,0.060937 -0.03047,0.020312 -0.06094,0.020312 -0.0914,0 C 11.155555,2.6096812 10.373538,3.3409186 9.6930804,3.1377971 9.286837,3.0159243 8.9009062,2.9346756 8.464195,2.985456 8.0477959,3.0260803 7.6415529,3.0870167 7.2149976,3.0870167 6.2907948,3.0768607 5.366592,3.1377971 4.4423891,3.1073289 4.2392676,3.0971729 4.0463021,3.0971729 3.8533367,3.0768607 3.6908395,3.0565485 3.4775619,2.9752999 3.3150647,3.0463925 3.0611628,3.1377971 3.0103825,3.2292018 3.0306946,3.3002944 3.1017873,3.3510749 2.8580413,3.6760691 2.8580413,3.8385663 L 2.8377291,4.2651215 C 2.8275733,4.8947982 2.786949,5.4736945 2.6447639,6.083059 2.5736714,6.4080534 2.4111742,6.8650768 2.5330471,7.1900712 2.6041396,7.4033488 2.7666368,7.5455339 2.8580413,7.7384993 3.0205385,8.0838059 3.0306946,8.5103609 3.0103825,8.8861359 L 2.9088217,12.542323 c -0.040624,1.218729 -0.1218727,2.437459 -0.071093,3.666343 0.040625,1.127324 0.2234336,2.285117 0.071093,3.412442 -0.05078,0.375774 -0.4976475,1.035919 -0.071093,1.299977 0.2437457,0.142186 0.5382719,0.182809 0.812486,0.203122 0.6906131,0.04062 1.3812262,-0.03047 2.0718394,-0.111717 0.2539018,-0.03047 0.5078037,-0.08125 0.7617056,-0.08125 0.1929654,-0.01016 0.3757748,0.02031 0.5585841,0.08125 0.1624973,0.06094 0.406243,0.172653 0.5992085,0.172653 0.010156,0.01016 0.3046822,-0.01016 0.3249944,-0.0914 0.2539019,-0.111717 0.4773355,-0.192966 0.80233,-0.132029 0.3148383,0.06094 0.5992084,0.101561 0.9242031,0.04062 0.1726533,-0.03047 0.4265552,-0.05078 0.5992082,-0.01016 l 0.07109,0.05078 c 0.07109,-0.03047 -0.04062,0.08125 -0.111717,0.111716 -0.3859307,0.152341 -0.2640578,0.649989 -0.3046821,0.974983 0,0.03047 -0.040624,0.04062 -0.060937,0.04062 -0.1523411,0 -0.365619,0 -0.4468676,-0.162498 -0.1828094,-0.33515 -0.6093645,-0.558584 -0.6093645,0.132029 0,0.04063 -0.030468,0.06094 -0.060937,0.06094 -0.030468,0 -0.060937,-0.02031 -0.060937,-0.06094 0,-0.04062 -0.4468674,-0.28437 -0.4976477,-0.304682 -0.2234295,-0.121863 -0.4773314,-0.264048 -0.7413894,-0.172643 -0.1624972,0.05078 -0.2945262,0.142185 -0.4468673,0.213278 -0.2742141,0.33515 -0.5585842,0.690612 -0.9648272,0.477335 -0.081249,-0.04062 -0.4163991,-0.335151 -0.4874916,-0.274214 -0.091405,0.101561 -0.1929654,0.203121 -0.3249944,0.253902 -0.3656187,0.142185 -0.7515496,0.121873 -1.1374805,0.111717 -0.020312,0 -0.060937,-0.02031 -0.060937,-0.05078 -0.020312,-0.15234 -0.1015607,-0.457023 -0.3148383,-0.274214 -0.05078,0.04063 -0.091405,0.08125 -0.1421851,0.13203 -0.060935,0.05078 -0.132028,0.121872 -0.2132765,0.15234 C 3.1220993,22.505433 2.3400817,22.373404 2.2385209,22.190595 2.1572723,22.058566 2.1268041,21.916381 2.0963358,21.764039 2.0353994,21.388265 2.0760237,20.982022 2.0658676,20.596091 2.0353994,19.631264 1.9643069,18.686749 1.8830583,17.732078 1.842434,17.244586 1.8018097,16.746938 1.842434,16.249291 c 0.020312,-0.314839 0.030468,-0.75155 0.1929654,-1.03592 0.132029,-0.233589 0.040624,-0.416399 -0.132029,-0.589052 -0.040624,-0.05078 -0.060936,-0.142186 -0.060936,-0.203122 -0.030468,-0.355462 0.030468,-0.731237 0.05078,-1.0867 0.020312,-0.264058 0.060937,-0.528116 0.060937,-0.792174 0,-0.203121 -0.040624,-0.396087 -0.060937,-0.599208 -0.010156,-0.101561 -0.020312,-0.203121 0.040624,-0.294526 0.1218729,-0.172653 0.1015608,-0.264058 0.030468,-0.457023 -0.1320289,-0.375775 0,-0.822643 0.020312,-1.2187301 0.030468,-0.457023 0.05078,-0.914047 0,-1.381226 C 1.9338386,8.0838059 1.8322779,7.5861582 1.8627461,7.0681983 1.8932143,6.6010189 1.9236826,6.1744637 1.9439947,5.7174403 1.984619,4.8846421 1.984619,4.0416878 1.9643069,3.2088897 l 0,0.1929654 c 0,0 -0.071093,-1.0663879 0.3757748,-1.3202898 0.6804568,-0.3757748 1.5030989,-0.3148383 2.2444925,-0.3453066 0.9648271,-0.040624 1.9296542,0.05078 2.8944814,0.05078 0.5585842,0 1.1171683,-0.010156 1.6554404,-0.132029 0.3859308,-0.081248 0.7617059,-0.1218725 1.157793,-0.1015603 0.477335,0.030468 0.934359,0.1523411 1.401538,0.1929654 0.46718,0.040624 0.924203,0.020312 1.391383,-0.010156 1.015607,-0.071093 2.031215,-0.040624 3.046822,0 l 1.584349,0.071093 c 0.243745,0.010156 0.528115,0.071092 0.761705,0.010156 l 0.446868,-0.1523412 c 0.33515,-0.091405 0.558584,-0.010156 0.883578,0.071093 l 1.188261,0.2843701 c 0.132029,-0.030468 0.264058,-0.040624 0.365618,0.060936 0.223435,0.2031215 0.01016,0.4570234 0.172654,0.6906131 0.192965,0.2742141 0.375774,0.4468673 0.416399,0.8023299 0.04062,0.3757749 0.06094,0.7820179 -0.06094,1.1476366 -0.08125,0.2437458 -0.192965,0.5078038 -0.0914,0.7718617 0.06094,0.1624972 0.172653,0.3148384 0.213277,0.4874916 0.08125,0.3656187 0.08125,0.7312375 0.06094,1.1070122 -0.02031,0.4265552 -0.04063,0.8632664 -0.09141,1.2796655 -0.03047,0.2742137 -0.142185,0.5382717 -0.152341,0.8023297 -0.01016,0.223434 0.06094,0.406243 0.10156,0.619521 0.142186,0.700769 -0.467179,1.137481 -0.578896,1.777313 -0.06094,0.345307 0.335151,0.192966 0.507805,0.396087 0.111716,0.132029 0.05078,0.355463 0.04062,0.497647 -0.04062,0.375776 0.07109,0.741394 0.05078,1.117169 -0.02031,0.46718 -0.162496,0.85311 -0.05078,1.32029 0.06094,0.264058 0.111717,0.528116 0.05078,0.792174 -0.06094,0.264057 -0.365618,0.924203 0.04062,1.046075 0.02031,0 0.03047,0.02031 0.03047,0.04062 0,0.121874 -0.02031,0.203122 -0.07109,0.314839 -0.182809,0.406243 0.101562,0.324994 0.152342,0.589052 0.05078,0.243746 -0.09141,0.335151 -0.132029,0.558584 -0.06094,0.365619 0.132029,0.649989 0.121873,1.005452 -0.01016,0.335151 -0.192966,0.51796 -0.132029,0.822642 0.02031,0 0.04062,0.02031 0.04062,0.04062 0.03047,0.162497 0.05078,0.345307 -0.01016,0.507804 -0.08125,0.23359 -0.182809,0.294526 0.08125,0.436712 0.121872,-0.07109 0.111716,-0.02031 0.08125,0.01016 z M 17.706224,9.7697139 C 17.543727,8.7744189 17.452323,7.7384993 17.117172,6.7838282 16.974987,6.3877413 16.903895,5.95103 16.436715,5.8697815 15.82735,5.7682207 16.030472,6.2760245 16.11172,6.7635161 c 0.121874,0.7515495 0.172654,1.5132552 0.365619,2.2546488 0.13203,0.507804 0.385931,1.1171681 -0.294526,0.721081 C 15.035177,9.0587889 14.649245,7.55569 14.182066,6.4283655 13.978945,5.9205618 13.379736,4.7018328 12.973493,4.3971505 12.780528,4.2549654 11.8157,4.0416878 11.632891,4.1635607 c -0.396087,0.2742141 0.832799,2.1835562 1.005452,2.5288628 0.375775,0.7617057 0.771862,1.5234113 1.259353,2.2140244 0.345307,0.487492 0.893735,0.934359 0.121873,1.2288851 -0.80233,0.304683 -1.18826,-0.1421851 -1.736689,-0.5585841 -0.436711,-0.324994 -0.98514,-0.375775 -1.533568,-0.436711 -1.4929432,-0.18281 -2.9147937,-0.01016 -4.1132107,0.9851391 -0.5788962,0.487492 -0.9445149,1.147637 -1.2491972,1.828094 -0.081249,0.172653 -0.5788963,1.675752 -0.5078037,1.685908 -0.3046823,-0.05078 -0.121873,-0.761705 -0.5078038,-0.345307 -0.3453066,0.365619 0.1015608,1.421851 0.2539018,1.78747 0.3453066,0.812486 0.7109253,1.614816 0.9851394,2.467927 0.274214,0.85311 0.3351504,0.832798 1.1171682,0.90389 0.9952954,0.0914 1.9702787,-0.213278 2.9554183,-0.33515 0,0 -1.7366892,-1.076545 1.6960647,0.10156 0.761706,0.264058 1.574192,0.192966 2.376522,0.223434 0.56874,-0.132029 0.589052,-1.117169 0.883578,-1.574192 0.111717,-0.172653 0.660145,-1.035919 0.832799,-1.107012 0.243746,-0.09141 0.599208,0.162497 0.842954,0.192965 1.432007,0.223434 1.868718,-0.954671 1.645284,-2.102307 -0.192965,-1.005451 -0.08125,-2.12262 0.06094,-2.904638 0.04062,-0.28437 -0.274214,-0.90389 -0.314839,-1.1781051 z m 2.599956,1.0765451 z m -8.988128,11.141214 c -0.152341,-0.142185 -0.38593,-0.182809 -0.538272,-0.33515 -0.08125,-0.09141 -0.111716,-0.18281 -0.0914,-0.28437 0,0 -0.01016,0 -0.01016,-0.01016 -0.111717,-0.203122 0.142185,-0.375775 0.324994,-0.304682 0.0914,0.04062 0.23359,0.10156 0.243746,0.213277 0.01016,0.142185 -0.08125,0.243746 -0.111717,0.375775 0.101561,0.06094 0.203122,0.203121 0.253902,0.274214 0.04062,0.06094 -0.03047,0.111716 -0.07109,0.07109 z"
     id="path6"
     inkscape:connector-curvature="0"
     style="fill:#c1272d" />
</svg>
